<?xml version="1.0" encoding="UTF-8"?>
<svg width="40px" height="40px" viewBox="0 0 40 40" version="1.1" xmlns="http://www.w3.org/2000/svg" xmlns:xlink="http://www.w3.org/1999/xlink">
    <!-- Generator: Sketch 52.5 (67469) - http://www.bohemiancoding.com/sketch -->
    <title>Group 9</title>
    <desc>Created with Sketch.</desc>
    <g id="Web_v2" stroke="none" stroke-width="1" fill="none" fill-rule="evenodd">
        <g id="Group-9">
            <g id="Group-7-Copy">
                <circle id="Oval" fill="#FFFFFF" cx="20" cy="20" r="20"></circle>
                <path d="M28.8953771,8.85023844 L11.9401849,8.85023844 C10.2299136,8.85023844 8.84346472,10.2366873 8.84346472,11.9469586 L8.84346472,22.0087591 C8.84346472,23.7190305 10.2299136,25.1054793 11.9401849,25.1054793 L17.9287202,25.1054793 L19.9653528,29.9035328 C19.9653528,29.9035328 20.1053431,30.3195523 20.4451582,30.3195523 C20.7838443,30.3195523 20.9249635,29.9035328 20.9249635,29.9035328 L22.9615961,25.1054793 L28.8953771,25.1054793 C30.6056485,25.1054793 31.9920973,23.7190305 31.9920973,22.0087591 L31.9920973,11.9469586 C31.9920973,10.2366873 30.6056485,8.85023844 28.8953771,8.85023844 Z M16.1161849,17.7452652 C16.1065888,19.5843309 14.2043017,19.6373917 14.2043017,19.6373917 C13.7701405,19.6388282 13.3542853,19.4626149 13.0533333,19.1496837 L13.0533333,19.4810316 L11.6686715,19.4810316 L11.6686715,13.7673966 C11.6630268,13.7673966 11.6624623,13.7673966 11.6686715,13.7640097 L11.6686715,13.7673966 C11.754472,13.780944 13.0538978,13.7640097 13.0538978,13.7640097 L13.0538978,15.9485353 C13.379601,15.39309 14.3217129,15.4021217 14.3217129,15.4021217 C16.3724574,15.5957372 16.1161849,17.7452652 16.1161849,17.7452652 Z M18.5547251,15.5799319 L18.5547251,19.4911922 L17.1999805,19.4911922 L17.1999805,15.6188808 C17.1999805,15.0922238 16.5463163,14.9460243 16.5463163,14.9460243 L16.5463163,13.5805547 C18.7105207,13.6686131 18.5547251,15.5799319 18.5547251,15.5799319 Z M21.768292,19.6379562 C20.5128954,19.6379562 19.495708,18.7014891 19.495708,17.5460049 C19.495708,16.3905207 20.5117664,15.4540535 21.768292,15.4540535 C23.0248175,15.4540535 24.0408759,16.3922141 24.0408759,17.5493917 C24.0408759,18.7065693 23.0248175,19.6379562 21.768292,19.6379562 Z M29.1956788,19.6379562 C29.1956788,19.6379562 29.2154355,21.6254793 27.1963017,21.6254793 L26.5810219,21.6254793 L26.5810219,20.339601 L26.9518832,20.339601 C26.9518832,20.339601 27.7985985,20.4174988 27.7906959,19.1107348 C27.7906959,19.1107348 27.6247397,19.6396496 26.4359513,19.6396496 C26.4359513,19.6396496 24.7487299,19.5182871 24.7487299,17.871708 L24.7487299,17.2479611 C24.7487299,17.2479611 24.7871144,15.540983 26.6374696,15.4043796 C26.6374696,15.4043796 27.3712895,15.3264818 27.8177908,15.9310365 L27.8177908,15.5116302 L29.1928564,15.5116302 L29.1956788,19.6379562 Z" id="Shape" fill="#212D30" fill-rule="nonzero"></path>
            </g>
            <circle id="Oval-Copy-2" fill="#212D30" cx="21.8585693" cy="17.8585693" r="1"></circle>
            <circle id="Oval-Copy-3" fill="#212D30" cx="26.8388127" cy="17.8388127" r="1"></circle>
            <circle id="Oval-Copy" fill="#212D30" cx="13.7970414" cy="17.7970414" r="1"></circle>
        </g>
    </g>
</svg>