<?xml version="1.0" encoding="UTF-8"?>
<svg width="40px" height="40px" viewBox="0 0 40 40" version="1.1" xmlns="http://www.w3.org/2000/svg" xmlns:xlink="http://www.w3.org/1999/xlink">
    <!-- Generator: Sketch 52.5 (67469) - http://www.bohemiancoding.com/sketch -->
    <title>Combined Shape Copy 3</title>
    <desc>Created with Sketch.</desc>
    <g id="Web_v2" stroke="none" stroke-width="1" fill="none" fill-rule="evenodd">
        <g id="Combined-Shape-Copy-3" fill="#FFFFFF">
            <path d="M19.8576991,39.7153982 C8.89059473,39.7153982 -3.51718654e-13,30.8248035 -3.51718654e-13,19.8576991 C-3.51718654e-13,8.89059473 8.89059473,2.16715534e-13 19.8576991,2.16715534e-13 C30.8248035,2.16715534e-13 39.7153982,8.89059473 39.7153982,19.8576991 C39.7153982,30.8248035 30.8248035,39.7153982 19.8576991,39.7153982 Z M24.8499115,20.6350442 L25.3189381,16.0771681 L21.3069027,16.0771681 L21.3069027,13.3922124 C21.3069027,12.3851327 21.9723894,12.1486726 22.4456637,12.1486726 L25.3309735,12.1486726 L25.3309735,7.72035398 L21.3543363,7.70371681 C16.940885,7.70371681 15.9380531,11.0095575 15.9380531,13.120708 L15.9380531,16.0729204 L13.3847788,16.0729204 L13.3847788,20.6350442 L15.9380531,20.6350442 L15.9380531,33.6162832 L21.3065487,33.6162832 L21.3065487,20.6350442 L24.8499115,20.6350442 Z" id="Combined-Shape-Copy"></path>
        </g>
    </g>
</svg>