<?xml version="1.0" encoding="UTF-8"?>
<svg width="40px" height="40px" viewBox="0 0 40 40" version="1.1" xmlns="http://www.w3.org/2000/svg" xmlns:xlink="http://www.w3.org/1999/xlink">
    <!-- Generator: Sketch 52.5 (67469) - http://www.bohemiancoding.com/sketch -->
    <title>Group 4 Copy 2</title>
    <desc>Created with Sketch.</desc>
    <g id="Web_v2" stroke="none" stroke-width="1" fill="none" fill-rule="evenodd">
        <g id="Group-4-Copy-2" fill="#FFFFFF">
            <g id="Group-4-Copy">
                <path d="M15.8991597,17.4789916 C15.8991597,17.1260504 15.6134454,16.8403361 15.2605042,16.8403361 L11.9495798,16.8403361 C11.5966387,16.8403361 11.3109244,17.1260504 11.3109244,17.4789916 C11.3109244,17.8319328 11.5966387,18.1176471 11.9495798,18.1176471 L12.9579832,18.1176471 L12.9579832,21.9831933 C12.9579832,22.3193277 13.2436975,22.605042 13.6134454,22.605042 C13.9831933,22.605042 14.2689076,22.3193277 14.2689076,21.9831933 L14.2689076,18.1176471 L15.2773109,18.1176471 C15.6134454,18.1176471 15.8991597,17.8319328 15.8991597,17.4789916 Z" id="Path"></path>
                <path d="M18.3193277,17.4789916 C18.2016807,17.1596639 17.8823529,16.8403361 17.4453782,16.8403361 C17.0252101,16.8571429 16.6890756,17.1764706 16.5882353,17.4789916 L15.0420168,21.5630252 C14.8403361,22.1680672 15.0252101,22.4033613 15.1932773,22.487395 C15.3277311,22.5378151 15.4621849,22.5714286 15.6134454,22.5714286 C15.8823529,22.5714286 16.0840336,22.4537815 16.1512605,22.2857143 L16.4705882,21.4453782 L18.4537815,21.4453782 L18.7731092,22.2857143 C18.8403361,22.4705882 19.0420168,22.5714286 19.3109244,22.5714286 C19.4621849,22.5714286 19.5966387,22.5378151 19.7310924,22.487395 C19.9159664,22.4033613 20.0840336,22.1848739 19.8823529,21.5630252 L18.3193277,17.4789916 Z M18.1008403,20.302521 L16.8067227,20.302521 L17.4621849,18.4537815 L18.1008403,20.302521 Z" id="Shape" fill-rule="nonzero"></path>
                <path d="M22.9915966,21.3109244 L21.6134454,21.3109244 L21.6134454,17.4957983 C21.6134454,17.1428571 21.3109244,16.8403361 20.9579832,16.8403361 C20.5882353,16.8403361 20.302521,17.1260504 20.302521,17.4957983 L20.302521,21.9159664 C20.302521,22.2521008 20.5882353,22.5042017 20.9243697,22.5042017 L23.0084034,22.5042017 C23.3445378,22.5042017 23.6302521,22.2352941 23.6302521,21.9159664 C23.6302521,21.5966387 23.3445378,21.3109244 22.9915966,21.3109244 Z" id="Path"></path>
                <path d="M20.0336134,2.0250468e-13 C9.02521008,2.0250468e-13 0.100840336,8.90756303 0.100840336,19.9159664 C0.100840336,30.9243697 9.02521008,39.8319328 20.0336134,39.8319328 C31.0420168,39.8319328 39.9495798,30.907563 39.9495798,19.9159664 C39.9495798,8.92436975 31.0252101,2.0250468e-13 20.0336134,2.0250468e-13 Z M19.8319328,28.3697479 C19.1428571,28.3697479 18.487395,28.3193277 17.8319328,28.2352941 C17.1764706,28.6890756 13.4285714,31.3277311 13.0756303,31.3781513 C13.0756303,31.3781513 12.9243697,31.4285714 12.8067227,31.3613445 C12.6890756,31.2941176 12.7058824,31.092437 12.7058824,31.092437 C12.7394958,30.8403361 13.6806723,27.6134454 13.8487395,27.0084034 C10.6722689,25.4453782 8.57142857,22.6554622 8.57142857,19.4957983 C8.57142857,14.5882353 13.6134454,10.6218487 19.8319328,10.6218487 C26.0504202,10.6218487 31.092437,14.605042 31.092437,19.4957983 C31.092437,24.3865546 26.0504202,28.3697479 19.8319328,28.3697479 Z" id="Shape" fill-rule="nonzero"></path>
                <path d="M26.3529412,19.4117647 L27.8319328,17.9327731 C27.9327731,17.8319328 27.9831933,17.697479 27.9831933,17.5294118 C27.9663866,17.3781513 27.8991597,17.2268908 27.7983193,17.1092437 C27.6806723,16.9915966 27.512605,16.9243697 27.3445378,16.9243697 C27.210084,16.9243697 27.0756303,16.9747899 26.9915966,17.0756303 L25.1764706,18.8907563 L25.1764706,17.4957983 C25.1764706,17.1428571 24.8907563,16.8403361 24.5210084,16.8403361 C24.1512605,16.8403361 23.8655462,17.1260504 23.8655462,17.4957983 L23.8655462,21.9327731 C23.8655462,22.2857143 24.1512605,22.5882353 24.5210084,22.5882353 C24.8907563,22.5882353 25.1764706,22.302521 25.1764706,21.9327731 L25.1764706,20.5210084 L25.394958,20.302521 L26.9243697,22.3193277 C27.0420168,22.487395 27.2436975,22.5714286 27.4453782,22.5714286 C27.5798319,22.5714286 27.7142857,22.5210084 27.8319328,22.4369748 C27.9663866,22.3361345 28.0672269,22.1848739 28.0840336,22.0168067 C28.1008403,21.8487395 28.0672269,21.6806723 27.9663866,21.5294118 L26.3529412,19.4117647 Z" id="Path"></path>
            </g>
        </g>
    </g>
</svg>